<svg width="25" height="25" viewBox="0 0 25 25" fill="none" xmlns="http://www.w3.org/2000/svg">
<path d="M23.7109 12.5C23.7109 13.2031 23.125 13.75 22.4609 13.75H21.2109L21.25 20C21.25 20.1172 21.25 20.2344 21.25 20.3125V20.9375C21.25 21.8359 20.5469 22.5 19.6875 22.5H19.0625C18.9844 22.5 18.9453 22.5 18.9062 22.5C18.8672 22.5 18.7891 22.5 18.75 22.5H16.5625C15.6641 22.5 15 21.8359 15 20.9375V17.5C15 16.8359 14.4141 16.25 13.75 16.25H11.25C10.5469 16.25 10 16.8359 10 17.5V20.9375C10 21.8359 9.29688 22.5 8.4375 22.5H6.25C6.17188 22.5 6.13281 22.5 6.05469 22.5C6.01562 22.5 5.97656 22.5 5.9375 22.5H5.3125C4.41406 22.5 3.75 21.8359 3.75 20.9375V16.5625C3.75 16.5625 3.75 16.5234 3.75 16.4844V13.75H2.5C1.79688 13.75 1.25 13.2031 1.25 12.5C1.25 12.1484 1.36719 11.8359 1.64062 11.5625L11.6406 2.85156C11.9141 2.57812 12.2266 2.5 12.5 2.5C12.7734 2.5 13.0859 2.61719 13.3203 2.8125L23.2812 11.5625C23.5938 11.8359 23.75 12.1484 23.7109 12.5Z" fill="#9CA3AF"/>
</svg>
