<svg width="20" height="20" viewBox="0 0 20 20" fill="none" xmlns="http://www.w3.org/2000/svg">
<path d="M17.75 16.7188C18.0625 17.0312 18.0625 17.5 17.75 17.7812C17.625 17.9375 17.4375 18 17.25 18C17.0312 18 16.8438 17.9375 16.6875 17.7812L12.5 13.5938C11.375 14.5 9.96875 15 8.46875 15C4.90625 15 2 12.0938 2 8.5C2 4.9375 4.875 2 8.46875 2C12.0312 2 14.9688 4.9375 14.9688 8.5C14.9688 10.0312 14.4688 11.4375 13.5625 12.5312L17.75 16.7188ZM3.5 8.5C3.5 11.2812 5.71875 13.5 8.5 13.5C11.25 13.5 13.5 11.2812 13.5 8.5C13.5 5.75 11.25 3.5 8.5 3.5C5.71875 3.5 3.5 5.75 3.5 8.5Z" fill="#4B5563"/>
</svg>
