<svg width="32" height="32" viewBox="0 0 32 32" fill="none" xmlns="http://www.w3.org/2000/svg">
<path d="M27.5085 16.8604L25.9148 16.5005C25.5549 16.3977 25.2978 16.1406 25.1436 15.7807C24.9894 15.3695 24.8351 15.0096 24.6809 14.5983C24.5267 14.2898 24.5267 13.8785 24.7323 13.5701L25.6063 12.182C25.8634 11.7707 25.8119 11.2565 25.4521 10.8967L23.9611 9.40574C23.6013 9.04587 23.0871 8.99445 22.6759 9.25151L21.2877 10.1769C20.9793 10.3826 20.568 10.3826 20.2595 10.2283C19.8996 10.0227 19.4884 9.86845 19.0771 9.76562C18.7172 9.6628 18.4601 9.35433 18.3573 8.99445L18.0488 7.40071C17.946 6.88659 17.5347 6.57812 17.072 6.57812H14.9128C14.4501 6.57812 14.0388 6.88659 13.9359 7.40071L13.5761 8.99445C13.4732 9.35433 13.2162 9.61139 12.8563 9.76562C12.445 9.91986 12.0851 10.0741 11.6738 10.2283C11.3654 10.3826 10.9541 10.3826 10.6456 10.1769L9.30893 9.30292C8.89763 9.04587 8.38352 9.09728 8.02364 9.45716L6.53272 10.9481C6.17284 11.308 6.12143 11.8221 6.37848 12.2334L7.25247 13.6215C7.45812 13.9299 7.45812 14.3412 7.30389 14.6497C7.09824 15.0096 6.94401 15.4209 6.84118 15.8322C6.73836 16.192 6.42989 16.4491 6.07002 16.5519L4.47627 16.8604C3.96215 16.9632 3.65369 17.3745 3.65369 17.8372V19.9965C3.65369 20.4592 3.96215 20.8705 4.47627 20.9733L6.07002 21.3332C6.42989 21.436 6.68695 21.693 6.84118 22.0529C6.99542 22.4642 7.14965 22.8241 7.30389 23.2354C7.45812 23.5438 7.45812 23.9551 7.25247 24.2636L6.37848 25.6003C6.12143 26.0116 6.17284 26.5257 6.53272 26.8856L8.02364 28.3765C8.38352 28.7364 8.89763 28.7878 9.30893 28.5307L10.697 27.6567C11.0055 27.4511 11.4168 27.4511 11.7253 27.6053C12.0851 27.811 12.4964 27.9652 12.9077 28.068C13.2676 28.1709 13.5246 28.4793 13.6275 28.8392L13.9874 30.433C14.0902 30.8957 14.5015 31.2555 14.9642 31.2555H17.1234C17.5861 31.2555 17.9974 30.9471 18.1003 30.433L18.4601 28.8392C18.563 28.4793 18.82 28.2223 19.1799 28.068C19.5912 27.9138 19.9511 27.7596 20.3623 27.6053C20.6708 27.4511 21.0821 27.4511 21.3906 27.6567L22.7787 28.5307C23.19 28.7878 23.7041 28.7364 24.064 28.3765L25.5549 26.8856C25.9148 26.5257 25.9662 26.0116 25.7091 25.6003L24.7323 24.2122C24.5267 23.9037 24.5267 23.4924 24.6809 23.184C24.8865 22.8241 25.0408 22.4128 25.1436 22.0015C25.2464 21.6416 25.5549 21.3846 25.9148 21.2817L27.5085 20.9219C27.9712 20.819 28.3311 20.4078 28.3311 19.9451V17.7858C28.3311 17.3745 28.0226 16.9632 27.5085 16.8604Z" fill="white"/>
<circle cx="15.9925" cy="18.912" r="4.93548" fill="#292D53"/>
<path d="M28.6093 13.6802L28.6097 13.6671V13.6541C28.6097 11.8904 27.8148 9.83704 26.5943 8.05869C25.3689 6.27321 23.6456 4.66338 21.6726 3.85394L21.0713 3.60725L20.7488 4.17156L19.7258 5.96171V2.96568C19.7258 2.09411 19.0242 1.39249 18.1527 1.39249H13.8495C12.9233 1.39249 12.3226 2.15101 12.3226 2.96568V6.00733L11.2504 4.16627L10.926 3.60929L10.3296 3.85394C8.35512 4.66399 6.64288 6.27527 5.42912 8.06152C4.22296 9.8366 3.44275 11.8829 3.43877 13.6406L3.39295 14.939L3.3659 15.7054L3.43876 15.7054C2.85789 15.7054 2.28138 16.0348 2.05998 16.6246C1.82299 17.1451 1.88329 17.8317 2.40712 18.2618C2.47554 18.3198 2.53853 18.3533 2.56629 18.3676C2.61127 18.3907 2.65358 18.4078 2.68636 18.42C2.75241 18.4445 2.82435 18.4653 2.89508 18.4834C3.03896 18.5201 3.22999 18.5584 3.47005 18.5975C3.95277 18.6762 4.67355 18.7645 5.69219 18.8474C7.73098 19.0134 10.991 19.1602 15.978 19.1602C20.9649 19.1602 24.225 19.0134 26.2637 18.8474C27.2824 18.7645 28.0032 18.6762 28.4859 18.5975C28.7259 18.5584 28.917 18.5201 29.0609 18.4834C29.1316 18.4653 29.2035 18.4445 29.2696 18.42C29.3024 18.4078 29.3447 18.3907 29.3896 18.3676C29.4123 18.3559 29.4583 18.3315 29.5116 18.2915C30.1128 17.8704 30.1847 17.1577 29.9422 16.6245C29.729 16.0579 29.1727 15.7054 28.6097 15.7054L28.5378 15.7054L28.563 14.9912L28.6093 13.6802Z" fill="#FF5A1F" stroke="#292D53" stroke-width="1.48064"/>
</svg>
