<svg width="25" height="25" viewBox="0 0 25 25" fill="none" xmlns="http://www.w3.org/2000/svg">
<path d="M8.75 12.5C5.97656 12.5 3.75 10.2734 3.75 7.5C3.75 4.76562 5.97656 2.5 8.75 2.5C11.4844 2.5 13.75 4.76562 13.75 7.5C13.75 10.2734 11.4844 12.5 8.75 12.5ZM10.7031 14.375C14.4531 14.375 17.5 17.4219 17.5 21.1719C17.5 21.9141 16.875 22.5 16.1328 22.5H1.32812C0.585938 22.5 0 21.9141 0 21.1719C0 17.4219 3.00781 14.375 6.75781 14.375H10.7031ZM18.7109 15C22.1875 15 25 17.8125 25 21.25C25 21.9531 24.4141 22.5 23.75 22.5H18.3594C18.5938 22.1094 18.75 21.6797 18.75 21.1719C18.75 18.7109 17.6172 16.4844 15.8203 15H18.7109ZM16.875 12.5C15.625 12.5 14.5312 12.0312 13.75 11.2109C14.5312 10.1953 15 8.90625 15 7.5C15 6.48438 14.6875 5.50781 14.2578 4.64844C14.9609 4.10156 15.8594 3.75 16.875 3.75C19.2578 3.75 21.25 5.74219 21.25 8.125C21.25 10.5469 19.2578 12.5 16.875 12.5Z" fill="white"/>
</svg>
